<?xml version="1.0" encoding="UTF-8"?>
<svg xmlns="http://www.w3.org/2000/svg" viewBox="0 0 898 762" width="898" height="762">
<path d="M0 0 C4.38 1.46 4.91 4.09 7 8.12 C7.68 9.43 8.36 10.73 9.06 12.07 C10.83 15.66 12.43 19.33 14 23 C14.66 23.33 15.32 23.66 16 24 C16.41 25.13 16.82 26.27 17.25 27.44 C19 32 19 32 22.12 37.12 C25 42 25 42 26 48 C26.66 48 27.32 48 28 48 C28 48.99 28 49.98 28 51 C28.66 51 29.32 51 30 51 C30.5 52.16 30.5 52.16 33 58 C36 64 36 64 38 66 C38.99 68.31 39.98 70.62 41 73 C41.99 74.32 42.98 75.64 44 77 C44.64 78.63 45.28 80.26 45.94 81.94 C48 87 48 87 52 92 C52.6 93.55 53.2 95.09 53.81 96.69 C56.2 102.48 59.36 106.92 63 112 C67 119.28 67 119.28 67 123 C67.66 123 68.32 123 69 123 C74 133.24 74 133.24 74 136 C81.1 133.72 86.75 130.02 93 126 C100 123 100 123 103 123 C103.33 121.68 103.66 120.36 104 119 C111 115 111 115 114 115 C114 114.34 114 113.68 114 113 C122.24 109 122.24 109 125 109 C125 108.34 125 107.68 125 107 C128.97 104.62 132.97 102.29 137 100 C138.98 98.68 140.96 97.36 143 96 C145.31 95.34 147.62 94.68 150 94 C150.33 93.34 150.66 92.68 151 92 C151.99 92.33 152.98 92.66 154 93 C152.68 100.67 151.34 108.34 150 116 C149.73 117.59 149.45 119.17 149.17 120.81 C147.33 131.15 147.33 131.15 145.44 136 C143.11 142.47 142.79 149.19 142 156 C141.67 156.33 141.34 156.66 141 157 C139.92 163.26 139.03 169.4 138.69 175.75 C137.95 182.47 136.21 188.31 134.2 194.74 C132.51 200.75 131.78 206.81 131 213 C130.39 215.68 129.73 218.35 129 221 C127.71 225.75 126.8 230.31 126.06 235.19 C125 242 125 242 123.5 248.12 C122.31 253.6 121.61 258.58 121.12 264.12 C120.33 272.62 118.51 280.46 116.12 288.63 C114.97 293.1 114.4 297.41 114 302 C113.34 302 112.68 302 112 302 C112 303.98 112 305.96 112 308 C116 306 116 306 119 301 C125.33 296 125.33 296 128 296 C128.66 294.68 129.32 293.36 130 292 C137.47 285 137.47 285 140 285 C140 284.34 140 283.68 140 283 C146.48 277 146.48 277 149 277 C149 276.34 149 275.68 149 275 C154 271 154 271 156 271 C156 270.34 156 269.68 156 269 C162.48 263 162.48 263 165 263 C165.33 262.01 165.66 261.02 166 260 C166.66 260 167.32 260 168 260 C168 259.34 168 258.68 168 258 C171.64 254.96 175.31 251.97 179 249 C180.67 247.49 182.34 245.99 184.06 244.44 C188 241 188 241 190 241 C190 240.34 190 239.68 190 239 C192.63 236.62 195.31 234.3 198 232 C200.05 230.13 202.09 228.26 204.12 226.38 C215.47 216 215.47 216 218 216 C218 215.34 218 214.68 218 214 C221.65 210.98 225.32 207.98 229 205 C230.15 203.82 231.31 202.65 232.5 201.44 C235 199 235 199 238 199 C238 222.43 238 245.86 238 270 C240.31 269.34 242.62 268.68 245 268 C247.31 268 249.62 268 252 268 C252 267.34 252 266.68 252 266 C256.74 262.84 262.14 262.73 267.7 261.88 C272 261 272 261 279 258 C284.33 256.92 289.64 255.92 295 255 C302.37 253.72 309.06 252.03 316.12 249.56 C321.69 247.78 327.33 246.42 333 245 C333.33 244.67 333.66 244.34 334 244 C338 243.63 342 243.29 346 243 C346 242.34 346 241.68 346 241 C351.61 239.13 356.59 238.23 362.44 237.44 C364.25 237.19 366.06 236.94 367.93 236.68 C369.61 236.46 371.28 236.23 373 236 C375.31 235.67 377.62 235.34 380 235 C378 241 378 241 375.19 247.06 C371.27 255.58 367.8 264 365.38 273.06 C364 278 364 278 361 282 C360.26 284.65 359.58 287.31 359 290 C358.34 290 357.68 290 357 290 C356.67 291.98 356.34 293.96 356 296 C354.03 299.68 352.02 303.35 350 307 C348.64 310.32 347.3 313.65 346 317 C345.36 318.24 344.72 319.48 344.06 320.75 C341.2 326.66 339.17 332.81 337 339 C334.94 344.39 332.97 349.05 330 354 C329.67 355.32 329.34 356.64 329 358 C328.34 358 327.68 358 327 358 C326.67 359.98 326.34 361.96 326 364 C324.68 366.67 323.35 369.34 322 372 C322 372.99 322 373.98 322 375 C324.14 375.29 326.29 375.58 328.5 375.88 C333.89 376.68 338.76 377.68 344 379 C347.5 379.69 351 380.35 354.5 381 C359.41 381.91 364.28 382.82 369.12 384.04 C373.23 385.06 377.32 385.77 381.5 386.44 C383.06 386.69 384.61 386.95 386.21 387.21 C389.37 387.73 392.53 388.25 395.69 388.75 C399.48 389.4 403.24 390.19 407 391 C408 394 408 394 407 396 C404.33 397.33 401.67 398.67 399 400 C398.67 400.66 398.34 401.32 398 402 C396.02 402.99 394.04 403.98 392 405 C390.27 406.22 388.53 407.43 386.75 408.69 C382 412 382 412 380 412 C380 412.66 380 413.32 380 414 C379.01 414 378.02 414 377 414 C377 414.66 377 415.32 377 416 C373.35 418.37 369.68 420.69 366 423 C364.18 424.32 362.37 425.64 360.5 427 C355.12 430.91 349.62 434.45 344 438 C338.99 441.31 333.99 444.65 329 448 C316.48 456.35 281.79 450.47 267 448 C259.71 447.45 252.41 446.98 245.11 446.5 C239 446 239 446 237 445 C234.96 444.86 232.92 444.71 230.81 444.56 C224 444 224 444 217 442 C213.88 441.44 210.76 440.93 207.62 440.44 C199.11 439.11 199.11 439.11 198 438 C190.24 436.57 182.49 435.22 174.69 434.06 C168.54 432.91 162.88 431.1 157 429 C158 425 158 425 161 424 C161.33 423.34 161.66 422.68 162 422 C162.66 422 163.32 422 164 422 C164 421.34 164 420.68 164 420 C166.96 417.62 169.97 415.29 173 413 C174.98 411.35 176.96 409.7 179 408 C179.66 408 180.32 408 181 408 C181 407.34 181 406.68 181 406 C183.96 403.62 186.97 401.29 190 399 C191.98 397.35 193.96 395.7 196 394 C196.66 394 197.32 394 198 394 C198 393.34 198 392.68 198 392 C209.43 383 209.43 383 212 383 C212 382.34 212 381.68 212 381 C216 378 216 378 218 378 C218 377.34 218 376.68 218 376 C226.45 369 226.45 369 229 369 C229 368.34 229 367.68 229 367 C231.96 364.62 234.97 362.29 238 360 C239.98 358.35 241.96 356.7 244 355 C244.66 355 245.32 355 246 355 C246 354.34 246 353.68 246 353 C248.96 350.62 251.97 348.29 255 346 C256.98 344.35 258.96 342.7 261 341 C261.66 341 262.32 341 263 341 C263 340.34 263 339.68 263 339 C263.73 338.47 263.73 338.47 267.44 335.81 C272 332 272 332 273 325 C269 319 269 319 267 317 C261.12 318.18 258.94 320.17 254.38 324 C252.96 325.18 251.54 326.36 250.07 327.58 C249.4 328.14 249.4 328.14 246 331 C244.08 332.57 242.16 334.13 240.19 335.75 C238.48 337.15 236.76 338.56 235 340 C219.13 353 219.13 353 217 353 C217 353.66 217 354.32 217 355 C212.29 358.92 207.47 362.65 202.56 366.31 C199 369 199 369 196 372 C184.36 381 184.36 381 182 381 C182 381.66 182 382.32 182 383 C174.56 389 174.56 389 172 389 C172 389.66 172 390.32 172 391 C167.38 394.74 162.72 398.39 158 402 C151.59 406.92 145.21 411.83 139 417 C138.34 417 137.68 417 137 417 C137 417.66 137 418.32 137 419 C129.61 420.23 125.02 418.36 118 416 C118 415.34 118 414.68 118 414 C116.68 413.67 115.36 413.34 114 413 C104.69 408.79 96.32 403.95 88 398 C86.02 397.34 84.04 396.68 82 396 C81.67 395.34 81.34 394.68 81 394 C80.01 393.67 79.02 393.34 78 393 C78 392.34 78 391.68 78 391 C77.34 391 76.68 391 76 391 C75.67 390.34 75.34 389.68 75 389 C73.35 388.01 71.7 387.02 70 386 C68.35 384.02 66.7 382.04 65 380 C61.11 376.47 57.2 373.15 53 370 C52.01 368.35 51.02 366.7 50 365 C48.01 362.66 46.01 360.32 44 358 C31.51 342.05 31.51 342.05 30 333 C29.34 333 28.68 333 28 333 C24.45 326.7 22.53 321.02 21 314 C20.36 312.96 19.73 311.91 19.07 310.84 C16.64 306.33 15.8 302.34 14.88 297.31 C14.55 295.54 14.22 293.77 13.88 291.95 C13.73 291.13 13.73 291.13 13 287 C12.61 284.9 12.22 282.79 11.81 280.62 C9.86 267.09 9.93 253.65 10.08 240.02 C10.11 235.97 10.13 231.92 10.16 227.88 C10.2 221.53 10.25 215.18 10.32 208.83 C10.39 202.69 10.42 196.54 10.45 190.39 C10.48 188.48 10.51 186.56 10.54 184.59 C10.54 182.83 10.55 181.08 10.55 179.27 C10.56 178.49 10.56 178.49 10.59 174.56 C10 171 10 171 5 169 C1 168.92 -3 168.91 -7 169 C-7.02 171.54 -7.04 174.08 -7.06 176.7 C-7.14 186.19 -7.23 195.69 -7.32 205.18 C-7.36 209.28 -7.39 213.37 -7.42 217.47 C-7.47 223.38 -7.53 229.3 -7.59 235.21 C-7.6 237.02 -7.61 238.83 -7.62 240.7 C-7.8 256.19 -8.91 271.01 -13 286 C-13.68 289.33 -14.35 292.66 -15 296 C-16.09 301.18 -17.32 305.96 -19 311 C-19.33 312.65 -19.66 314.3 -20 316 C-20.66 316 -21.32 316 -22 316 C-22.12 317.42 -22.25 318.85 -22.38 320.31 C-23 325 -23 325 -25 328 C-25.66 328 -26.32 328 -27 328 C-27.33 329.65 -27.66 331.3 -28 333 C-33 342.77 -38.92 351.88 -45 361 C-45.66 361 -46.32 361 -47 361 C-47.66 362.32 -48.32 363.64 -49 365 C-55.59 373 -55.59 373 -58 373 C-58 373.66 -58 374.32 -58 375 C-70.02 386 -70.02 386 -73 386 C-73 386.66 -73 387.32 -73 388 C-82.47 395.03 -92.46 401.73 -103 407 C-103.66 407.99 -104.32 408.98 -105 410 C-112.28 413.68 -119 416.43 -127 418 C-127.66 418.66 -128.32 419.32 -129 420 C-135 420 -135 420 -140 415 C-144.56 411.45 -149.19 408.21 -154 405 C-154 404.34 -154 403.68 -154 403 C-155.65 402.34 -157.3 401.68 -159 401 C-170 393.67 -170 393.67 -170 391 C-171.32 390.34 -172.64 389.68 -174 389 C-176.68 387.01 -179.34 385.01 -182 383 C-182.66 382.67 -183.32 382.34 -184 382 C-184 381.34 -184 380.68 -184 380 C-184.66 380 -185.32 380 -186 380 C-187.65 378.35 -189.3 376.7 -191 375 C-191.82 374.5 -191.82 374.5 -196 372 C-196 371.34 -196 370.68 -196 370 C-197.32 369.67 -198.64 369.34 -200 369 C-201.65 367.35 -203.3 365.7 -205 364 C-207.06 362.45 -209.12 360.91 -211.25 359.31 C-217 355 -217 355 -218 353 C-218.82 352.5 -218.82 352.5 -223 350 C-223 349.34 -223 348.68 -223 348 C-224.32 347.34 -225.64 346.68 -227 346 C-233.81 341.38 -233.81 341.38 -235 339 C-235.99 338.67 -236.98 338.34 -238 338 C-239.65 336.35 -241.3 334.7 -243 333 C-246.65 329.98 -250.32 326.98 -254 324 C-255.98 322.35 -257.96 320.7 -260 319 C-266 318 -266 318 -271 320 C-273 324 -273 324 -273 330 C-269 335 -269 335 -265 337 C-263.35 338.65 -261.7 340.3 -260 342 C-252.52 348.56 -244.79 354.81 -237 361 C-233.61 363.83 -230.23 366.68 -226.94 369.62 C-223 373 -223 373 -218 376 C-216.35 377.65 -214.7 379.3 -213 381 C-210.68 383.02 -208.35 385.02 -206 387 C-204.78 388.07 -203.57 389.14 -202.31 390.25 C-199 393 -199 393 -195 395 C-195 395.66 -195 396.32 -195 397 C-193.68 397.66 -192.36 398.32 -191 399 C-189.02 400.65 -187.04 402.3 -185 404 C-183.68 404.66 -182.36 405.32 -181 406 C-181 406.66 -181 407.32 -181 408 C-179.68 408.66 -178.36 409.32 -177 410 C-173.33 413 -169.67 416 -166 419 C-164.68 419.66 -163.36 420.32 -162 421 C-161.01 421.99 -160.02 422.98 -159 424 C-158.01 424.66 -157.02 425.32 -156 426 C-157 429 -157 429 -163.81 430.56 C-166.18 431.04 -168.56 431.51 -171 432 C-172.32 432.66 -173.64 433.32 -175 434 C-177.74 434.56 -180.49 435.05 -183.25 435.5 C-187.64 436.22 -191.92 436.98 -196.23 438.09 C-200 439 -200 439 -205 439 C-205 439.66 -205 440.32 -205 441 C-216.94 443.09 -228.8 444.5 -240.88 445.46 C-249.5 446.22 -258.07 447.27 -266.66 448.32 C-280.11 449.77 -293.48 450.21 -307 450.25 C-308.64 450.27 -310.28 450.29 -311.96 450.31 C-313.54 450.32 -315.12 450.32 -316.75 450.33 C-318.17 450.34 -319.59 450.35 -321.05 450.36 C-328.37 449.7 -332.46 446.62 -338 442 C-338.99 441.67 -339.98 441.34 -341 441 C-341 440.34 -341 439.68 -341 439 C-342.98 438.34 -344.96 437.68 -347 437 C-347.5 436.5 -347.5 436.5 -350 434 C-350.99 433.67 -351.98 433.34 -353 433 C-353.33 432.34 -353.66 431.68 -354 431 C-354.99 430.67 -355.98 430.34 -357 430 C-357 429.34 -357 428.68 -357 428 C-358.65 427.34 -360.3 426.68 -362 426 C-371 420.39 -371 420.39 -371 418 C-372.98 417.34 -374.96 416.68 -377 416 C-377.33 415.34 -377.66 414.68 -378 414 C-379.65 413.01 -381.3 412.02 -383 411 C-388 408 -388 408 -388 406 C-389.65 405.34 -391.3 404.68 -393 404 C-407 394.67 -407 394.67 -407 391 C-385.17 386.27 -385.17 386.27 -375.44 385.06 C-366.82 383.83 -358.67 381.66 -350.29 379.34 C-345.81 378.21 -341.57 377.51 -337 377 C-336.67 376.67 -336.34 376.34 -336 376 C-331.34 375.63 -326.67 375.29 -322 375 C-324.62 363.38 -324.62 363.38 -328 360 C-329.41 355.94 -330.55 351.83 -331.72 347.69 C-333 344 -333 344 -336 341 C-337.03 337.34 -338.02 333.67 -339 330 C-340.31 326.99 -341.64 323.99 -343 321 C-343.33 319.35 -343.66 317.7 -344 316 C-344.66 316 -345.32 316 -346 316 C-346.58 314.19 -347.15 312.37 -347.75 310.5 C-349.53 305.35 -351.54 300.83 -354 296 C-354 295.01 -354 294.02 -354 293 C-354.66 293 -355.32 293 -356 293 C-357.4 289.7 -358.73 286.36 -360 283 C-360.99 280.69 -361.98 278.38 -363 276 C-363 274.02 -363 272.04 -363 270 C-363.66 270 -364.32 270 -365 270 C-368 265 -368 265 -368.81 260.81 C-370.22 255.1 -372.94 250.99 -376 246 C-376 244.68 -376 243.36 -376 242 C-376.66 242 -377.32 242 -378 242 C-378.33 239.36 -378.66 236.72 -379 234 C-372 235 -372 235 -365 237 C-362.21 237.7 -359.42 238.38 -356.62 239.06 C-349 241 -349 241 -348 242 C-344.82 242.56 -341.63 243.08 -338.44 243.56 C-337.56 243.7 -337.56 243.7 -333.12 244.38 C-332.44 244.48 -332.44 244.48 -329 245 C-329 245.66 -329 246.32 -329 247 C-326.36 247 -323.72 247 -321 247 C-321 247.66 -321 248.32 -321 249 C-318.03 249.33 -315.06 249.66 -312 250 C-312 250.66 -312 251.32 -312 252 C-309.36 252 -306.72 252 -304 252 C-304 252.66 -304 253.32 -304 254 C-303.25 254.05 -303.25 254.05 -299.44 254.31 C-294 255 -294 255 -287 258 C-283.2 258.92 -279.39 259.77 -275.56 260.56 C-269.01 261.93 -262.49 263.35 -256 265 C-252.67 265.67 -249.33 266.34 -246 267 C-243.03 267.66 -240.06 268.32 -237 269 C-237 245.57 -237 222.14 -237 198 C-232.28 200.36 -228.93 203.51 -225 207 C-224.34 207.33 -223.68 207.66 -223 208 C-223 208.66 -223 209.32 -223 210 C-222.01 210.33 -221.02 210.66 -220 211 C-212 219 -212 219 -212 221 C-210.68 221.66 -209.36 222.32 -208 223 C-203 227 -203 227 -203 229 C-201.68 229.66 -200.36 230.32 -199 231 C-191 237.59 -191 237.59 -191 240 C-189.68 240.66 -188.36 241.32 -187 242 C-181.67 245.72 -178.23 248.92 -174 254 C-173.34 254.33 -172.68 254.66 -172 255 C-172 255.66 -172 256.32 -172 257 C-170.68 257.66 -169.36 258.32 -168 259 C-163 263 -163 263 -163 265 C-161.35 265.66 -159.7 266.32 -158 267 C-147.13 275.73 -147.13 275.73 -144 282 C-142.68 282.66 -141.36 283.32 -140 284 C-137.64 285.97 -135.31 287.97 -133 290 C-131.35 291.32 -129.7 292.64 -128 294 C-126.35 295.65 -124.7 297.3 -123 299 C-122.34 299.5 -122.34 299.5 -119 302 C-119 302.66 -119 303.32 -119 304 C-117.68 304.33 -116.36 304.66 -115 305 C-114.34 305.33 -113.68 305.66 -113 306 C-113.62 301.94 -114.24 297.87 -114.88 293.81 C-115.22 291.55 -115.57 289.29 -115.93 286.96 C-117 281 -117 281 -119 276 C-119.82 269.93 -120.47 263.85 -121.12 257.76 C-122 252 -122 252 -125 245 C-125.37 241 -125.7 237 -126 233 C-126.66 231.35 -127.32 229.7 -128 228 C-128.76 224.14 -129.51 220.27 -130.21 216.4 C-130.72 213.54 -131.26 210.7 -131.82 207.85 C-133.47 199.55 -134.37 191.43 -135 183 C-135.66 181.35 -136.32 179.7 -137 178 C-137.55 175.36 -138.04 172.72 -138.5 170.06 C-139.36 165.1 -140.39 160.82 -142 156 C-142.35 153.07 -142.63 150.13 -142.88 147.19 C-143.65 139.21 -145.1 131.71 -147.05 123.95 C-148.4 118.35 -149.17 112.69 -150 107 C-150.37 105.37 -150.74 103.74 -151.12 102.06 C-152 98 -152 98 -152 92 C-147 94 -147 94 -146 97 C-144.35 97.33 -142.7 97.66 -141 98 C-141 98.66 -141 99.32 -141 100 C-139.35 100.33 -137.7 100.66 -136 101 C-134.02 102.32 -132.04 103.64 -130 105 C-128.35 105.66 -126.7 106.32 -125 107 C-125 107.66 -125 108.32 -125 109 C-123.35 109.66 -121.7 110.32 -120 111 C-115.38 113.44 -111.01 116 -106.69 118.94 C-101.32 122.44 -95.75 125.18 -90 128 C-85.75 130.25 -85.75 130.25 -83 132 C-83 132.66 -83 133.32 -83 134 C-79.7 134.99 -76.4 135.98 -73 137 C-72.73 135.64 -72.46 134.28 -72.19 132.88 C-71 128 -71 128 -68 122 C-67.34 122 -66.68 122 -66 122 C-65.67 120.68 -65.34 119.36 -65 118 C-64.01 118 -63.02 118 -62 118 C-61.67 116.02 -61.34 114.04 -61 112 C-60.34 112 -59.68 112 -59 112 C-58.67 110.35 -58.34 108.7 -58 107 C-55.84 101.04 -53.99 96.99 -50 92 C-48.65 88.67 -47.32 85.34 -46 82 C-44.68 80.02 -43.36 78.04 -42 76 C-41.67 74.68 -41.34 73.36 -41 72 C-40.34 72 -39.68 72 -39 72 C-38.67 70.02 -38.34 68.04 -38 66 C-37.34 66 -36.68 66 -36 66 C-36 65.01 -36 64.02 -36 63 C-35.34 63 -34.68 63 -34 63 C-33.34 61.02 -32.68 59.04 -32 57 C-31.34 55.35 -30.68 53.7 -30 52 C-29.34 52 -28.68 52 -28 52 C-27.34 50.35 -26.68 48.7 -26 47 C-25.67 46.34 -25.34 45.68 -25 45 C-24.34 45 -23.68 45 -23 45 C-22.67 43.02 -22.34 41.04 -22 39 C-21.34 39 -20.68 39 -20 39 C-19.9 38.36 -19.9 38.36 -19.38 35.12 C-17.8 29.27 -15.23 25.11 -12 20 C-10.64 17.35 -9.3 14.68 -8 12 C-5 6 -5 6 -2 3 C-1.34 2.01 -0.68 1.02 0 0 Z " fill="#1C3248" transform="translate(434,33)"/>
<path d="M0 0 C3 2 3 2 3 4 C3.66 4.33 3.66 4.33 7 6 C9.67 8 12.33 10 15 12 C15.66 12.33 15.66 12.33 19 14 C19 14.66 19 15.32 19 16 C19.66 16.33 19.66 16.33 23 18 C23.66 18.33 24.32 18.66 25 19 C25 19.66 25 20.32 25 21 C26.32 21.33 27.64 21.66 29 22 C29 22.66 29 23.32 29 24 C29.66 24.33 29.66 24.33 33 26 C43 32.67 43 32.67 43 35 C44.65 35.66 46.3 36.32 48 37 C48.66 37.33 49.32 37.66 50 38 C50 38.66 50 39.32 50 40 C50.99 40.33 50.99 40.33 56 42 C56 42.66 56 43.32 56 44 C57.32 44.66 58.64 45.32 60 46 C63.81 48.38 63.81 48.38 67 51 C65.61 56.58 62.32 58.3 58 62 C56 64.33 54 66.66 52 69 C49.72 71.06 47.38 73.06 45 75 C44.3 75.58 44.3 75.58 40.75 78.5 C26.05 90.01 10.97 101.29 -5 111 C4.5 109.38 4.5 109.38 9 106 C10.88 105.67 12.75 105.34 14.69 105 C16.44 104.67 18.19 104.34 20 104 C20.33 103.01 20.66 102.02 21 101 C24.23 100.02 27.52 99.19 30.81 98.44 C40.64 96.18 40.64 96.18 45 94 C47.66 93.29 50.32 92.63 53 92 C58.7 90.61 64.34 89.21 69.94 87.44 C75.91 85.74 81.86 84.89 88 84 C89.46 83.65 90.93 83.3 92.44 82.94 C98.59 81.67 104.74 81.41 111 81 C111.5 80.84 111.5 80.84 114 80 C121.16 79.75 128.33 79.81 135.5 79.81 C136.5 79.81 136.5 79.81 141.54 79.78 C143.48 79.77 145.41 79.77 147.41 79.77 C149.17 79.77 150.94 79.76 152.76 79.76 C158.33 80.02 163.54 80.92 169 82 C173.81 82.51 178.63 82.93 183.45 83.34 C188.02 84 191.71 85.33 196 87 C198.31 87.33 200.62 87.66 203 88 C204.13 88.43 205.27 88.87 206.44 89.31 C213.16 91.8 220.04 93.32 227 95 C227 95.66 227 96.32 227 97 C227.77 97.15 227.77 97.15 231.69 97.94 C233.44 98.29 235.19 98.64 237 99 C238.65 99.33 240.3 99.66 242 100 C242 100.66 242 101.32 242 102 C243.98 102.33 245.96 102.66 248 103 C251.68 104.3 255.35 105.63 259 107 C260.55 107.52 262.09 108.03 263.69 108.56 C267.83 109.94 271.92 111.44 276 113 C276 112.34 276 111.68 276 111 C274.35 110.34 272.7 109.68 271 109 C266.63 106.38 262.41 103.6 258.19 100.75 C254 98 254 98 251 97 C251 96.34 251 95.68 251 95 C249.02 94.34 247.04 93.68 245 93 C242.29 90.72 239.62 88.38 237 86 C235.51 84.91 234.03 83.81 232.5 82.69 C229 80 229 80 229 78 C227.35 77.34 225.7 76.68 224 76 C223.67 75.01 223.34 74.02 223 73 C221.35 72.34 219.7 71.68 218 71 C218 70.34 218 69.68 218 69 C217.01 68.67 216.02 68.34 215 68 C214.67 66.68 214.34 65.36 214 64 C213.01 63.67 212.02 63.34 211 63 C211 62.34 211 61.68 211 61 C209.35 60.34 207.7 59.68 206 59 C205.34 57.68 204.68 56.36 204 55 C203.01 54.67 202.02 54.34 201 54 C201 52.68 201 51.36 201 50 C201.99 50 202.98 50 204 50 C204 49.34 204 48.68 204 48 C210 44 210 44 212 44 C212 43.34 212 42.68 212 42 C215.63 39.29 219.3 36.62 223 34 C224.65 32.68 226.3 31.36 228 30 C229.3 29.36 230.6 28.72 231.94 28.06 C237.91 25.03 241.84 21.2 246 16 C246.66 16 247.32 16 248 16 C248 15.34 248 14.68 248 14 C250.66 12.65 253.33 11.32 256 10 C261 6 261 6 264 2 C273.25 -2.63 277.75 -0.36 287 3 C291.31 4.1 295.64 5.1 299.98 6.07 C303.69 6.93 307.35 7.96 311 9 C315.66 10.03 320.33 11.02 325 12 C326.55 12.37 328.09 12.74 329.69 13.12 C334.5 13.92 339.01 14.23 343.88 14.44 C354.05 14.87 363.96 16.32 374 18 C374 18.66 374 19.32 374 20 C376.14 20.06 378.28 20.12 380.49 20.18 C398.66 20.7 416.83 21.29 435 22 C435 22.99 435 23.98 435 25 C434.34 25 433.68 25 433 25 C433 25.66 433 26.32 433 27 C430.69 27.99 428.38 28.98 426 30 C419.49 34.27 419.49 34.27 417 38 C416.17 38.33 416.17 38.33 412 40 C410.35 41.65 408.7 43.3 407 45 C406.43 45.28 406.43 45.28 403.56 46.69 C397.91 49.55 393.06 53.19 387.98 56.95 C385 59 385 59 383 59 C382.67 60.32 382.34 61.64 382 63 C377.69 66.19 374.23 68.69 369 70 C368.01 70.99 367.02 71.98 366 73 C363.31 74.97 360.6 76.9 357.88 78.81 C356.35 79.88 354.83 80.95 353.27 82.05 C350.08 84.25 346.86 86.42 343.62 88.56 C340 91 340 91 337 94 C336.34 94.33 335.68 94.66 335 95 C335 96.65 335 98.3 335 100 C335.66 100 336.32 100 337 100 C340 104 340 104 340 106 C340.99 106.33 341.98 106.66 343 107 C346.03 110.64 349.03 114.31 352 118 C353.65 119.65 355.3 121.3 357 123 C357 123.66 357 124.32 357 125 C357.99 125.33 358.98 125.66 360 126 C360.33 127.32 360.66 128.64 361 130 C362.32 130.66 363.64 131.32 365 132 C367.35 134.99 369.68 137.99 372 141 C372.83 141.66 372.83 141.66 377 145 C377 145.66 377 146.32 377 147 C377.99 147.33 378.98 147.66 380 148 C380 148.66 380 149.32 380 150 C380.66 150 381.32 150 382 150 C386 154 386 154 387 157 C388.98 158.65 390.96 160.3 393 162 C394.67 164.33 396.34 166.66 398 169 C398.99 169.33 399.98 169.66 401 170 C401.33 171.65 401.66 173.3 402 175 C391.12 174.12 391.12 174.12 390 173 C386.57 172.36 383.13 171.77 379.69 171.19 C371.46 169.73 363.92 167.7 356 165 C351.85 164.17 347.7 163.47 343.52 162.79 C334.36 161.19 325.32 158.99 316.26 156.91 C312 156 312 156 307.38 155.5 C303 155 303 155 296 153 C293.34 152.63 290.67 152.28 288 152 C288 151.34 288 150.68 288 150 C286.76 150.08 285.52 150.16 284.25 150.25 C277.94 149.95 272.96 148.07 267 146 C263.35 145.27 259.68 144.6 256 144 C252.67 143.34 249.33 142.67 246 142 C244.49 141.71 242.99 141.42 241.44 141.12 C236.82 140.17 232.27 139.07 227.69 137.94 C220.45 136.21 213.45 135.34 206 135 C206 134.34 206 133.68 206 133 C203.69 133 201.38 133 199 133 C199 132.34 199 131.68 199 131 C197.62 130.88 196.24 130.75 194.81 130.62 C188.5 129.95 182.26 129 176 128 C176 127.34 176 126.68 176 126 C174.75 126.03 173.51 126.06 172.22 126.09 C166.52 125.99 161.08 125.31 155.44 124.5 C153.48 124.22 151.52 123.94 149.5 123.66 C148.01 123.44 146.53 123.22 145 123 C144.99 124.58 144.98 126.15 144.97 127.78 C144.87 142.6 144.77 157.41 144.66 172.23 C144.61 179.85 144.55 187.47 144.5 195.09 C144.46 202.44 144.4 209.78 144.35 217.13 C144.33 219.94 144.31 222.75 144.29 225.56 C144.27 229.48 144.24 233.4 144.21 237.32 C144.2 238.44 144.2 238.44 144.16 244.1 C144 249 144 249 143 250 C137.06 250 131.12 250 125 250 C125 208.42 125 166.84 125 124 C104.91 125.91 85.74 128.53 66.08 132.75 C60.21 133.96 54.34 135.01 48.44 136 C34.49 138.37 20.61 141.11 7 145 C2.99 145.8 -1.03 146.51 -5.06 147.22 C-8.75 147.95 -12.38 148.97 -16 150 C-18.62 150.53 -21.24 151.03 -23.88 151.5 C-31.76 152.95 -39.39 154.46 -47 157 C-50.95 157.92 -54.91 158.79 -58.88 159.62 C-60.96 160.07 -63.04 160.52 -65.18 160.98 C-71 162 -71 162 -79 162 C-79 162.66 -79 163.32 -79 164 C-82.61 164.42 -86.23 164.85 -89.84 165.27 C-94.43 166.08 -98.58 167.52 -103 169 C-106.53 169.79 -110.07 170.52 -113.62 171.19 C-115.41 171.53 -117.2 171.88 -119.04 172.23 C-124 173 -124 173 -131 173 C-130.67 171.68 -130.34 170.36 -130 169 C-129.34 169 -128.68 169 -128 169 C-127.34 167.68 -126.68 166.36 -126 165 C-122.44 160.88 -118.85 156.85 -115 153 C-114.34 152.01 -113.68 151.02 -113 150 C-112.34 150 -111.68 150 -111 150 C-110.34 148.68 -109.68 147.36 -109 146 C-107.21 143.9 -105.37 141.84 -103.5 139.81 C-102.52 138.75 -101.54 137.68 -100.53 136.58 C-98 134 -98 134 -96 133 C-95.01 131.35 -94.02 129.7 -93 128 C-86.39 120 -86.39 120 -84 120 C-83.67 119.34 -83.67 119.34 -82 116 C-74.38 106 -74.38 106 -72 106 C-71.67 105.34 -71.67 105.34 -70 102 C-69.01 100.68 -68.02 99.36 -67 98 C-67 92.46 -73.7 90.66 -78 88 C-79.32 86.68 -80.64 85.36 -82 84 C-83.53 83.15 -85.05 82.31 -86.62 81.44 C-91 79 -91 79 -93 76 C-93.52 75.71 -93.52 75.71 -96.12 74.25 C-100 72 -100 72 -103.69 68.75 C-108.82 64.29 -114.31 60.72 -120 57 C-130 50.26 -130 50.26 -130 48 C-131.65 47.34 -133.3 46.68 -135 46 C-138.16 43.78 -141.28 41.5 -144.38 39.19 C-160.05 27.48 -160.05 27.48 -165 25 C-165 24.67 -165 24.34 -165 24 C-163.82 23.94 -162.64 23.88 -161.42 23.82 C-159.88 23.73 -158.34 23.65 -156.75 23.56 C-155.98 23.52 -155.98 23.52 -152.11 23.32 C-148 23 -148 23 -144 22 C-139.5 21.68 -135 21.39 -130.5 21.12 C-69.27 17.27 -69.27 17.27 -65 13 C-60.34 12.31 -55.67 11.64 -51 11 C-50.18 10.83 -50.18 10.83 -46 10 C-46 9.34 -46 8.68 -46 8 C-44.7 7.9 -43.4 7.79 -42.06 7.69 C-37.02 7 -32.79 5.68 -28 4 C-23.19 2.66 -18.51 1.75 -13.56 0.94 C-4.33 -0.62 -4.33 -0.62 0 0 Z " fill="#1C3248" transform="translate(300,478)"/>
<path d="M0 0 C0.14 7.47 -0.39 14.65 -1.31 22.06 C-1.56 24.1 -1.8 26.13 -2.05 28.22 C-2.91 33.46 -4.22 38.02 -6 43 C-6.71 46.32 -7.39 49.66 -8 53 C-8.66 53 -9.32 53 -10 53 C-10 55.31 -10 57.62 -10 60 C-11.22 63.79 -12.44 67.57 -13.77 71.32 C-15 75 -15 75 -16.12 80.19 C-17 84 -17 84 -20 88 C-20.15 88.7 -20.15 88.7 -20.94 92.25 C-23.51 103.76 -23.51 103.76 -28 106 C-28.99 108.31 -29.98 110.62 -31 113 C-33.19 118.12 -35.48 123.05 -38 128 C-39.65 127.67 -41.3 127.34 -43 127 C-43 126.34 -43 125.68 -43 125 C-44.65 124.67 -46.3 124.34 -48 124 C-50.69 122.17 -53.31 120.24 -55.88 118.25 C-63.87 112.09 -63.87 112.09 -67.7 109.42 C-71 107 -71 107 -76 102 C-77.59 100.95 -79.18 99.9 -80.81 98.81 C-85 96 -85 96 -85 94 C-86.32 93.34 -87.64 92.68 -89 92 C-89.99 91.01 -90.98 90.02 -92 89 C-93.65 88.01 -95.3 87.02 -97 86 C-99 84 -99 84 -98 80 C-90.05 75 -90.05 75 -86 75 C-86 74.34 -86 73.68 -86 73 C-85.01 72.84 -85.01 72.84 -80 72 C-80 71.34 -80 70.68 -80 70 C-74 67 -74 67 -71 67 C-71 66.34 -71 65.68 -71 65 C-64.65 61 -64.65 61 -62 61 C-62 60.34 -62 59.68 -62 59 C-61.18 58.83 -61.18 58.83 -57 58 C-57 57.34 -57 56.68 -57 56 C-48.6 50 -48.6 50 -46 50 C-46 49.34 -46 48.68 -46 48 C-41 44 -41 44 -39 44 C-39 43.34 -39 42.68 -39 42 C-32.52 36 -32.52 36 -30 36 C-29.67 35.01 -29.34 34.02 -29 33 C-28.34 33 -27.68 33 -27 33 C-26.34 31.68 -25.68 30.36 -25 29 C-22.67 26.67 -20.33 24.33 -18 22 C-15.01 18.22 -12.23 14.33 -9.47 10.38 C-8.57 9.1 -7.68 7.82 -6.75 6.5 C-5.9 5.27 -5.05 4.05 -4.17 2.78 C-2 0 -2 0 0 0 Z " fill="#4C7964" transform="translate(419,386)"/>
<path d="M0 0 C5.46 4.55 8.83 8.86 12.77 14.7 C17.34 21.45 21.72 26.76 28 32 C28.52 32.61 28.52 32.61 31.12 35.69 C34 39 34 39 38 41 C38 41.66 38 42.32 38 43 C38.66 43 39.32 43 40 43 C40 43.66 40 44.32 40 45 C41.32 45.66 42.64 46.32 44 47 C48 49 48 49 52 53 C59 57.95 66.33 62.17 74 66 C74 66.66 74 67.32 74 68 C75.65 68.33 77.3 68.66 79 69 C82.34 70.98 85.68 72.98 89 75 C89.66 75.16 89.66 75.16 93 76 C93 76.66 93 77.32 93 78 C94.98 78.33 96.96 78.66 99 79 C98.84 79.66 98.84 79.66 98 83 C97.34 83 96.68 83 96 83 C96 83.66 96 84.32 96 85 C94.68 85.33 93.36 85.66 92 86 C92 86.66 92 87.32 92 88 C91.34 88 90.68 88 90 88 C90 88.66 90 89.32 90 90 C84 94 84 94 82 94 C82 94.66 82 95.32 82 96 C79.28 98.1 76.54 100.19 73.77 102.23 C69.55 105.33 65.4 108.5 61.25 111.69 C55.86 115.82 50.44 119.93 45 124 C43.68 124.99 42.36 125.98 41 127 C38 127 38 127 35.56 122.88 C35.14 122.07 35.14 122.07 33 118 C31.68 116.02 30.36 114.04 29 112 C29 110.68 29 109.36 29 108 C28.34 108 27.68 108 27 108 C26.67 105.69 26.34 103.38 26 101 C25.34 101 24.68 101 24 101 C20 92.06 20 92.06 20 87 C19.34 87 18.68 87 18 87 C7 54.94 7 54.94 7 45 C6.34 45 5.68 45 5 45 C2.7 27.14 2.7 27.14 3 19 C2.34 19 1.68 19 1 19 C0.67 12.73 0.34 6.46 0 0 Z " fill="#4C7964" transform="translate(450,387)"/>
</svg>